<svg t="1750238900141" class="icon" viewBox="0 0 1024 1024" version="1.1" xmlns="http://www.w3.org/2000/svg" p-id="31486" width="200" height="200"><path d="M136.533604 0.00026a49.119975 49.119975 0 0 0-35.839982 15.359992C91.307627 25.600247 85.33463 38.40024 85.33463 51.200234v921.599532a49.119975 49.119975 0 0 0 15.359992 35.839982 50.545974 50.545974 0 0 0 35.839982 15.359992h750.931619a49.119975 49.119975 0 0 0 35.839981-15.359992 50.546974 50.546974 0 0 0 15.359993-35.839982V290.134113L648.533344 0.00026z" fill="#FF5562" p-id="31487"></path><path d="M938.666197 290.133113H699.733318a52.492973 52.492973 0 0 1-51.199974-51.199974V0.00026z" fill="#FFBBC0" p-id="31488"></path><path d="M730.266302 865.332821c-53.759973 0-101.599948-92.212953-127.146935-151.999923-42.666978-17.919991-89.599955-34.132983-134.826931-45.226977-40.10498 26.560987-107.518945 65.760967-159.624919 65.760966-32.426984 0-55.466972-16.212992-63.999968-44.372977-6.826997-23.039988-0.853-39.25298 5.972997-47.786976q20.47999-28.159986 84.479957-28.159986c34.132983 0 77.652961 5.972997 126.292936 17.919991a762.015613 762.015613 0 0 0 91.306954-75.092962c-12.799994-59.73297-26.452987-156.159921 8.532995-200.532898 17.066991-21.332989 43.519978-28.159986 75.092962-18.77299 34.986982 10.239995 47.786976 31.572984 51.999974 47.786976 14.506993 58.026971-51.999974 136.532931-97.332951 182.666907 10.239995 40.10698 23.039988 81.919958 39.25298 120.319939C695.33332 716.799896 772.080281 759.466874 780.666277 806.399851c3.412998 16.212992-1.706999 31.572984-14.506993 44.372977-11.092994 9.332995-23.039988 14.506993-35.839982 14.506993z m-79.359959-129.706935C683.333326 801.332853 714.000311 831.999838 730.266302 831.999838c2.559999 0 5.972997-0.853 11.092995-5.119998 5.972997-5.972997 5.972997-10.239995 5.119997-13.652993-3.412998-17.066991-30.666984-45.226977-95.572951-77.652961zM335.173503 647.732931c-41.812979 0-53.759973 10.239995-57.172971 14.506993-0.853 1.706999-4.266998 5.972997-0.852999 17.919991 2.559999 10.239995 9.332995 20.47999 31.572984 20.479989 27.306986 0 66.559966-15.359992 112.639942-42.666978-33.332983-6.826997-62.292968-10.239995-86.186956-10.239995z m168.959914-5.119997q41.577979 11.725994 81.919959 27.306986c-9.332995-24.746987-17.066991-50.346974-23.892988-75.092962-18.77299 16.212992-38.399981 32.426984-58.026971 47.786976z m105.866947-275.67986c-9.332995 0-16.212992 3.412998-22.186989 10.239994-17.919991 22.186989-19.62699 78.50696-5.972997 150.186924 51.999974-55.466972 80.212959-106.666946 73.332963-133.972932-0.853-4.266998-4.266998-16.212992-28.159986-23.039988a46.412976 46.412976 0 0 0-17.012991-3.413998z" fill="#FFFFFF" p-id="31489"></path></svg>