<?xml version="1.0" standalone="no"?><!DOCTYPE svg PUBLIC "-//W3C//DTD SVG 1.1//EN" "http://www.w3.org/Graphics/SVG/1.1/DTD/svg11.dtd"><svg t="1755049859738" class="icon" viewBox="0 0 1024 1024" version="1.1" xmlns="http://www.w3.org/2000/svg" p-id="12598" xmlns:xlink="http://www.w3.org/1999/xlink" width="200" height="200"><path d="M653.568 108.608a233.664 233.664 0 0 0-326.848 52.544 235.2 235.2 0 0 0 52.416 327.872A463.424 463.424 0 0 0 64 925.056a36.48 36.48 0 0 0 72.576 0c0-214.4 173.248-388.16 387.072-388.16a233.856 233.856 0 0 0 232.768-234.88 234.368 234.368 0 0 0-102.848-193.408z m30.72 194.048a161.536 161.536 0 0 1-161.28 161.792 161.472 161.472 0 0 1-161.28-161.728 161.536 161.536 0 0 1 161.28-161.792 161.536 161.536 0 0 1 161.28 161.728v0.32-0.32z m-43.264 378.496v-48.512c-16.768 1.92-32.256 4.224-50.944 5.76l-10.048-39.424c47.616-3.52 94.656-12.16 140.288-25.856l15.232 40.448c-17.344 4.416-34.816 8.512-52.288 12.288v55.296h53.184v41.728h-51.84v16.832c19.328 16.512 38.336 34.56 57.984 54.656l-24.192 37.184c-13.504-19.392-24.832-34.944-33.856-47.552V960h-43.52v-172.736a431.168 431.168 0 0 1-55.168 94.08l-18.368-45.568a316.544 316.544 0 0 0 68.672-112.896h-56.064v-41.728h60.928z m286.72 224.192H960v42.048h-240v-42.048h35.2V586.048h172.544v319.296z m-43.52-215.488V625.28h-86.4v64.64h86.4z m0 107.456v-66.304h-86.4v66.304h86.4z m0 108.032v-66.624h-86.4v66.56h86.4z" fill="currentColor" p-id="12599"></path></svg>