<?xml version="1.0" standalone="no"?><!DOCTYPE svg PUBLIC "-//W3C//DTD SVG 1.1//EN" "http://www.w3.org/Graphics/SVG/1.1/DTD/svg11.dtd"><svg t="1755049947406" class="icon" viewBox="0 0 1024 1024" fill="currentColor" version="1.1" xmlns="http://www.w3.org/2000/svg" p-id="20851" xmlns:xlink="http://www.w3.org/1999/xlink" width="200" height="200"><path d="M197.12 983.04h270.848c20.992 0 37.376-16.384 37.376-37.376s-16.384-37.376-37.376-37.376H197.12c-5.632 0-11.264-0.512-16.384-2.048-7.68-2.048-15.36-5.12-22.016-9.728-8.192-5.632-15.36-12.8-20.992-20.992-4.608-6.656-7.68-14.336-9.728-22.528-1.024-5.632-2.048-10.752-2.048-16.384v-650.24c0-9.728 2.048-18.944 5.632-27.648 3.584-8.192 8.704-15.872 15.36-22.528 13.312-13.312 31.232-20.992 50.176-20.992h487.936c9.728 0 18.944 2.048 27.648 5.632 8.704 3.584 16.384 8.704 22.528 15.36 13.312 13.312 20.992 31.232 20.992 50.176v216.576c0 20.992 16.384 37.376 37.376 37.376s37.376-16.384 37.376-37.376V186.88c0-80.384-64.512-145.408-144.896-145.408H197.12C116.736 40.96 51.712 105.984 51.2 185.856v650.752c0 68.608 47.616 127.488 114.176 142.336 10.24 2.56 20.992 4.096 31.744 4.096zM278.016 258.048h325.12c20.992 0 37.376 16.384 37.376 37.376s-16.384 37.376-37.376 37.376H278.016c-20.992 0-37.376-16.384-37.376-37.376s16.896-37.376 37.376-37.376z m0 162.304h325.12c20.992 0 37.376 16.384 37.376 37.376s-16.384 37.376-37.376 37.376H278.016c-20.992 0-37.376-16.384-37.376-37.376 0.512-20.992 16.896-37.376 37.376-37.376z m0 162.816c-20.992 0-37.376 16.384-37.376 37.376s16.384 37.376 37.376 37.376h162.816c20.992 0 37.376-16.384 37.376-37.376s-16.384-37.376-37.376-37.376H278.016z" p-id="20852"></path><path d="M691.2 667.648c38.4 38.4 100.864 38.4 139.776 0 38.4-38.4 38.4-100.864 0-139.776-38.4-38.4-100.864-38.4-139.776 0-13.312 13.312-22.528 30.208-26.624 48.64-4.096 19.968-2.56 40.448 5.632 59.392 4.608 12.288 11.776 22.528 20.992 31.744z m35.84-83.968c2.048-4.608 4.608-8.704 8.192-11.776 6.656-7.168 16.384-10.752 26.112-10.752 19.968 0 36.864 15.872 36.864 36.352 0 5.12-1.024 10.24-3.072 14.848-2.048 4.096-4.608 8.192-8.192 11.776-13.824 14.336-37.376 14.848-51.712 0.512l-0.512-0.512c-10.24-10.752-13.824-26.624-7.68-40.448zM865.28 747.008c-5.632-2.56-10.752-5.12-16.384-7.168-28.672-9.216-58.368-13.312-88.064-12.8-32.256 0-61.952 4.096-88.064 12.8s-48.128 20.992-67.072 37.376c-17.92 15.872-32.768 35.84-42.496 58.88-9.728 22.528-14.336 47.616-14.336 72.704 0 14.848 4.608 29.184 13.312 39.936 9.216 11.776 22.016 18.432 35.84 18.432h256v-70.656h-242.688c1.024-10.24 3.584-19.968 7.168-28.672 5.632-13.824 14.336-25.6 25.088-34.816 12.288-10.752 27.648-19.456 46.08-25.088 23.04-7.168 47.104-10.752 70.656-10.24 26.624 0 50.176 3.584 70.656 10.24 8.192 2.56 15.872 6.144 22.528 9.728 8.704 4.608 16.384 9.728 23.04 15.36 11.264 10.24 19.968 21.504 25.088 34.816 3.584 9.216 6.144 18.432 7.168 29.184h-55.808V967.68H921.6c3.584 0 6.656-0.512 9.728-1.024 6.144-1.536 11.776-4.608 16.896-8.192 8.192-6.656 14.336-15.36 18.432-25.6 2.56-7.168 4.096-15.36 4.096-23.04 0-25.088-4.608-49.664-14.336-72.704-10.24-23.04-24.576-43.52-42.496-58.88-13.312-13.824-30.208-24.064-48.64-31.232" p-id="20853"></path></svg>