<?xml version="1.0" standalone="no"?><!DOCTYPE svg PUBLIC "-//W3C//DTD SVG 1.1//EN" "http://www.w3.org/Graphics/SVG/1.1/DTD/svg11.dtd"><svg t="1747530250732" class="icon" viewBox="0 0 1024 1024" fill="currentColor" version="1.1" xmlns="http://www.w3.org/2000/svg" p-id="18441" xmlns:xlink="http://www.w3.org/1999/xlink" width="200" height="200"><path d="M624.618667 10.666667c39.424 0 72.725333 29.312 74.88 70.698666l0.128 4.309334v241.322666c0 39.424-29.312 72.725333-70.698667 74.901334l-4.309333 0.106666H546.773333v67.136h198.464c38.08 0 70.442667 27.349333 74.581334 66.474667l0.341333 4.245333 0.106667 4.309334-0.021334 77.802666h101.973334c38.058667 0 70.4 27.349333 74.56 66.474667l0.341333 4.224 0.106667 4.330667v241.322666c0 39.424-29.312 72.725333-70.698667 74.88l-4.309333 0.128H680.917333c-39.424 0-72.725333-29.312-74.901333-70.698666l-0.106667-4.309334V697.002667c0-39.424 29.312-72.725333 70.677334-74.901334l4.330666-0.106666 53.674667-0.021334v-67.136H273.301333v67.136h53.696c38.08 0 70.421333 27.349333 74.56 66.474667l0.341334 4.224 0.106666 4.330667v241.322666c0 39.424-29.312 72.725333-70.677333 74.88l-4.330667 0.128H85.674667c-39.424 0-72.725333-29.312-74.88-70.698666L10.666667 938.325333V697.002667c0-39.424 29.312-72.725333 70.698666-74.901334l4.309334-0.106666 109.994666-0.021334v-77.802666c0-36.608 25.877333-70.144 59.52-74.538667l3.754667-0.362667 3.690667-0.106666 198.464-0.021334v-67.136h-77.802667c-38.058667 0-70.4-27.306667-74.56-66.453333l-0.341333-4.224-0.106667-4.330667V85.674667c0-39.424 29.312-72.725333 70.698667-74.88L383.296 10.666667H624.64zM316.309333 699.626667H96.341333v219.968h219.968V699.626667z m603.285334 0H699.626667v219.968h219.968V699.626667zM613.930667 96.341333H393.962667v219.968h219.968V96.341333z"  p-id="18442"></path></svg>