<?xml version="1.0" standalone="no"?><!DOCTYPE svg PUBLIC "-//W3C//DTD SVG 1.1//EN" "http://www.w3.org/Graphics/SVG/1.1/DTD/svg11.dtd"><svg t="1747530112652" class="icon" viewBox="0 0 1024 1024" fill="currentColor" version="1.1" xmlns="http://www.w3.org/2000/svg" p-id="8001" xmlns:xlink="http://www.w3.org/1999/xlink" width="200" height="200"><path d="M910.336 126.464H113.664C51.2 126.464 0 178.176 0 241.152V757.76c0 63.488 51.2 114.688 113.664 114.688h796.672c62.976 0 113.664-51.2 113.664-114.688V241.152c0-62.976-51.2-114.688-113.664-114.688zM967.168 757.76c0 31.744-25.6 57.344-56.832 57.344H113.664c-31.232 0-56.832-25.6-56.832-57.344V241.152c0-31.744 25.6-57.344 56.832-57.344h796.672c31.232 0 56.832 25.6 56.832 57.344V757.76z m-512-286.72H142.336c-15.872 0-28.672 12.8-28.672 28.672 0 15.872 12.8 28.672 28.672 28.672h312.832c15.872 0 28.672-12.8 28.672-28.672-0.512-15.872-12.8-28.672-28.672-28.672z m-85.504 143.36H142.336c-15.872 0-28.672 12.8-28.672 28.672 0 15.872 12.8 28.672 28.672 28.672h227.328c15.872 0 28.672-12.8 28.672-28.672 0-15.872-12.8-28.672-28.672-28.672z m433.152-92.16c30.72-26.112 50.688-65.024 50.688-108.544 0-78.848-64-143.36-142.336-143.36s-142.336 64.512-142.336 143.36c0 43.52 19.968 82.432 50.688 108.544-64 33.28-107.52 100.864-107.52 178.176 0 15.872 12.8 28.672 28.672 28.672s28.672-12.8 28.672-28.672c0-78.848 64-143.36 142.336-143.36s142.336 64.512 142.336 143.36c0 15.872 12.8 28.672 28.672 28.672 15.872 0 28.672-12.8 28.672-28.672-1.024-77.312-45.056-144.896-108.544-178.176z m-91.648-22.528c-47.104 0-85.504-38.4-85.504-86.016S664.064 327.68 711.168 327.68s85.504 38.4 85.504 86.016c0 47.104-38.4 86.016-85.504 86.016zM483.328 327.168H142.336c-15.872 0-28.672 12.8-28.672 28.672 0 15.872 12.8 28.672 28.672 28.672h341.504c15.872 0 28.672-12.8 28.672-28.672-0.512-15.36-13.312-28.672-29.184-28.672z" p-id="8002"></path></svg>